<svg viewBox="0 0 1920 474.14" xmlns="http://www.w3.org/2000/svg" data-name="Calque 1" id="Calque_1">
  <defs>
    <style>
      .cls-1 {
        fill: #1d1d1b;
      }
    </style>
  </defs>
  <g>
    <g>
      <path d="M1751.82,158.03h11.74v62.4h24.02v10.22h-35.76v-72.61Z" class="cls-1"></path>
      <path d="M1821.94,158.03h11.09l23.05,72.61h-11.96l-5.76-19.35h-22.07l-5.76,19.35h-11.85l23.26-72.61ZM1827.38,173.68c-.65,2.17-1.3,4.46-1.85,6.52l-6.2,20.98h16.09l-6.2-20.76c-.65-2.17-1.3-4.46-1.85-6.74Z" class="cls-1"></path>
      <path d="M1869.67,158.03h22.07c12.72,0,21.41,6.74,21.41,19.13,0,7.17-3.04,12.28-8.26,15.22,7.72,2.61,12.5,9.24,12.5,18.15,0,11.63-8.04,20.11-21.2,20.11h-26.52v-72.61ZM1891.95,189.34c5.44,0,9.78-3.37,9.78-11.09,0-6.96-4.57-10.22-10.11-10.22h-10.22v21.31h10.54ZM1895,220.64c7.07,0,10.76-4.46,10.76-11.09,0-5.98-3.7-10.65-10.76-10.65h-13.59v21.74h13.59Z" class="cls-1"></path>
    </g>
    <path d="M1838.43,459.15c-22.43.04-41.46-7.72-57.06-23.26-15.61-15.54-23.43-34.22-23.47-56.03-.04-21.8,7.71-40.82,23.26-57.06,15.54-16.22,34.54-24.36,56.97-24.41,22.43-.04,41.45,8.03,57.06,24.19,15.6,16.18,23.43,35.17,23.47,56.97.04,21.82-7.73,40.53-23.26,56.12-15.55,15.6-34.54,23.43-56.97,23.47Z" class="cls-1"></path>
  </g>
  <g>
    <path d="M415.27,120.49h-8.82l-96.41-82.55h-54.19v381.24l23.32,30.88v3.15h-143.04v-3.15l23.32-30.88V37.94h-54.19L8.82,120.49H0L23.32,24.71h368.64l23.32,95.79Z" class="cls-1"></path>
    <path d="M644.03,375.08c-15.75,41.59-56.71,84.44-130.44,84.44-88.22,0-145.56-62.38-145.56-150.61,0-93.26,62.39-163.84,147.46-163.84,71.21,0,119.73,45.37,126.03,113.43h-195.35c.63,78.77,34.66,136.11,115.95,136.11,34.66,0,61.12-10.71,76.88-23.94l5.04,4.41ZM446.16,245.89h102.08c-3.15-60.49-17.64-86.96-49.15-86.96s-51.04,25.2-52.93,86.96Z" class="cls-1"></path>
    <path d="M683.12,24.71v-3.15l112.17-18.9v419.05l18.9,28.36v3.15h-127.29v-3.15l18.9-28.36V65.67l-22.69-40.96Z" class="cls-1"></path>
    <path d="M1357.38,450.06v3.15h-126.66v-3.15l17.64-28.36v-170.14c0-38.44-22.69-51.67-51.67-51.67-15.75,0-28.99,5.04-37.81,10.09v211.73l17.64,28.36v3.15h-126.03v-3.15l18.27-28.36v-171.4c0-37.18-22.06-50.42-51.04-50.42-17.01,0-30.88,4.41-39.07,10.09v211.73l18.27,28.36v3.15h-127.29v-3.15l18.9-28.36v-227.48l-17.64-39.7v-3.15h107.76v50.41c20.16-28.35,54.19-56.71,100.19-56.71s70.58,28.36,78.77,57.97c20.79-29.62,54.82-57.97,100.19-57.97,50.41,0,80.66,35.92,80.66,87.59v189.04l18.91,28.36Z" class="cls-1"></path>
    <path d="M1688.86,383.9v69.31h-54.19c-36.55,0-57.97-23.32-65.54-47.26-14.49,27.1-41.59,51.04-86.33,51.04s-76.25-28.36-76.25-71.84c0-37.18,26.47-60.5,66.8-78.14,34.66-15.12,67.43-23.94,93.89-30.24v-56.08c0-34.66-19.53-48.52-52.3-48.52-8.82,0-18.27,1.26-25.84,3.78v74.99h-84.44c5.67-32.13,28.99-57.34,59.86-75.62,31.51-18.27,68.06-30.24,103.34-30.24,55.45,0,86.96,27.73,86.96,81.92v156.91h34.03ZM1567.24,397.76v-109.02c-18.9,5.04-35.29,10.71-49.78,18.9-15.12,8.82-23.94,22.05-23.94,47.89,0,34.66,15.12,53.56,40.33,53.56,15.12,0,25.21-5.04,33.4-11.34Z" class="cls-1"></path>
  </g>
</svg>